<svg width="31" height="110" viewBox="0 0 31 110" fill="none" xmlns="http://www.w3.org/2000/svg">
<path d="M17.0612 14.4236C17.9443 14.4415 18.7159 14.8265 19.3913 15.5577C19.709 15.8985 20.2912 15.8985 20.6095 15.5577C21.2857 14.827 22.0858 14.4419 22.8365 14.4263C23.8394 14.4084 24.8243 14.8163 25.4599 15.5054C26.6606 16.8061 26.8968 19.156 25.1223 20.5379L19.9988 24.5172L14.8799 20.5379C13.1057 19.1591 13.3409 16.8098 14.5418 15.5054C15.1723 14.8167 16.1866 14.4053 17.0612 14.4236ZM17.0906 13.0011C15.676 12.9747 14.2649 13.5674 13.3152 14.5974C11.5918 16.4729 11.3606 19.6817 13.8432 21.6127L19.0989 25.6995C19.6145 26.1002 20.3856 26.1002 20.9012 25.6995L26.1569 21.6127C28.6401 19.6817 28.4088 16.473 26.681 14.5974C25.7362 13.567 24.2964 12.9711 22.7992 13.0011C21.7133 13.0189 20.8104 13.3825 19.9909 14.0789C19.1616 13.3821 18.2406 13.023 17.0906 13.0011Z" fill="white"/>
<path d="M25.5427 31.91C26.3602 32.6476 26.672 33.8456 25.4556 35.0255L12.3796 47.3912C11.6321 48.0766 12.7748 49.081 13.5223 48.4L18.5895 43.6033C19.0964 43.127 20.1292 43.213 20.9392 43.4548C21.9017 43.7378 22.7197 44.4744 23.0359 45.3567C23.3518 46.2387 23.1315 47.0864 22.5332 47.6297L17.5894 52.1291C16.8419 52.81 17.9832 53.8153 18.7307 53.1303L22.5496 49.6619C23.142 49.1186 24.0566 48.9252 25.0187 49.2084C25.9768 49.4914 26.7999 50.2351 27.1105 51.1175C27.4262 51.9986 27.2061 52.8436 26.6122 53.3842L22.7932 56.8598C22.0418 57.5417 23.178 58.5461 23.9266 57.8688L25.7517 56.2126C26.3041 55.7101 26.8564 55.5244 27.4834 55.681C28.3209 55.8891 29.0479 56.5656 29.2925 57.3331C29.5467 58.1185 29.3761 58.7959 28.9028 59.223L24.2703 63.4553C20.891 66.5402 19.4301 67.2808 16.4036 67.5375C12.9008 67.8353 9.06532 66.149 6.11389 63.4666C3.15899 60.7791 1.30319 57.2923 1.63095 54.0917C1.8636 51.8209 2.67314 49.9565 4.42434 48.3523L22.2549 32.0558C23.3556 31.0469 24.6711 31.1291 25.5427 31.91ZM13.6344 29.5401C13.9581 29.5585 14.3198 29.6509 14.7056 29.8197C16.7945 30.7173 17.5364 33.21 17.1467 34.6805L11.2859 40.0397C12.303 37.2302 12.2365 34.2148 12.1244 31.6023C12.0569 30.1273 12.6712 29.4886 13.6344 29.5401ZM13.6629 28.0146C12.7918 27.9365 11.8332 28.1666 11.2228 28.8363C10.6114 29.5065 10.3917 30.4804 10.5333 31.7431C10.9946 35.8298 10.3347 40.8723 6.77738 44.1421L3.28659 47.3513C1.26875 49.2048 0.302102 51.4522 0.0454224 53.9607C-0.341327 57.7342 1.77904 61.5606 4.9796 64.4702C8.17875 67.3841 12.3969 69.3117 16.5557 68.9583C19.8628 68.6787 21.9472 67.6183 25.413 64.4553L30.0489 60.2275C31.0506 59.3124 31.1782 57.898 30.8135 56.8815C30.3912 55.7099 29.4019 54.6972 27.8495 54.2918C28.8121 53.3395 29.0953 51.9654 28.6335 50.6775C28.1606 49.3484 26.9869 48.2839 25.5175 47.8523C25.1477 47.741 24.77 47.6921 24.3962 47.6737C24.8235 46.8363 24.8855 45.8547 24.5533 44.9172C24.0805 43.5881 22.9108 42.5275 21.4413 42.092C21.092 41.9883 20.7354 41.9318 20.3831 41.9062L26.6256 35.9992C28.3477 34.3291 28.0736 32.0844 26.6832 30.9087C24.9561 29.449 22.554 29.7321 21.113 31.0496L18.8386 33.13C18.7299 32.2661 18.3773 31.5332 17.9985 30.8404C17.158 29.3014 15.4142 28.174 13.6626 28.014L13.6629 28.0146Z" fill="white"/>
</svg>
